<?xml version="1.0" encoding="UTF-8" standalone="no"?>
<!-- Created with Inkscape (http://www.inkscape.org/) -->

<svg
   xmlns:dc="http://purl.org/dc/elements/1.1/"
   xmlns:cc="http://creativecommons.org/ns#"
   xmlns:rdf="http://www.w3.org/1999/02/22-rdf-syntax-ns#"
   xmlns:svg="http://www.w3.org/2000/svg"
   xmlns="http://www.w3.org/2000/svg"
   xmlns:sodipodi="http://sodipodi.sourceforge.net/DTD/sodipodi-0.dtd"
   xmlns:inkscape="http://www.inkscape.org/namespaces/inkscape"
   width="209.05132mm"
   height="52.866306mm"
   viewBox="0 0 209.05132 52.866306"
   version="1.1"
   id="svg8"
   inkscape:version="0.92.4 (5da689c313, 2019-01-14)"
   sodipodi:docname="dreitzner_logo_big.svg">
  <defs
     id="defs2">
    <clipPath
       id="clipPath4534"
       clipPathUnits="userSpaceOnUse">
      <path
         inkscape:connector-curvature="0"
         id="path4532"
         d="M 0,2000 H 2000 V 0 H 0 Z" />
    </clipPath>
  </defs>
  <sodipodi:namedview
     id="base"
     pagecolor="#ffffff"
     bordercolor="#666666"
     borderopacity="1.0"
     inkscape:pageopacity="0.0"
     inkscape:pageshadow="2"
     inkscape:zoom="0.98994949"
     inkscape:cx="50.098505"
     inkscape:cy="-11.811594"
     inkscape:document-units="mm"
     inkscape:current-layer="layer1"
     showgrid="false"
     fit-margin-top="0"
     fit-margin-left="0"
     fit-margin-right="0"
     fit-margin-bottom="0"
     inkscape:window-width="2560"
     inkscape:window-height="1377"
     inkscape:window-x="-8"
     inkscape:window-y="-8"
     inkscape:window-maximized="1" />
  <metadata
     id="metadata5">
    <rdf:RDF>
      <cc:Work
         rdf:about="">
        <dc:format>image/svg+xml</dc:format>
        <dc:type
           rdf:resource="http://purl.org/dc/dcmitype/StillImage" />
        <dc:title></dc:title>
      </cc:Work>
    </rdf:RDF>
  </metadata>
  <g
     inkscape:label="Ebene 1"
     inkscape:groupmode="layer"
     id="layer1"
     transform="translate(-0.44888972,-0.99629019)">
    <g
       transform="matrix(0.22436637,0,0,-0.22436637,-119.39175,251.79586)"
       inkscape:label="A 76135_UPS_ (1)"
       id="g4526">
      <g
         id="g4528">
        <g
           clip-path="url(#clipPath4534)"
           id="g4530">
          <path
             inkscape:connector-curvature="0"
             id="path4536"
             style="fill:#000000;fill-opacity:1;fill-rule:nonzero;stroke:none"
             d="m 561.261,913.364 h 36.56 v 8.34 h -36.56 z m 4.344,141.952 c 8.564,0 16.359,-0.268 24.12,0.121 3.519,0.176 5.696,3.087 5.805,6.567 0.24,7.676 0.074,15.364 0.074,21.556 -9.477,-8.922 -19.456,-18.318 -29.999,-28.244 m 63.002,-21.516 c -1.944,2.679 -3.762,5.186 -5.842,8.053 -8.19,-5.869 -16.135,-11.561 -24.54,-17.582 8.148,-6.613 16.033,-13.012 24.257,-19.687 1.996,2.379 3.921,4.672 6.187,7.373 -4.687,3.782 -9.254,7.468 -14.209,11.466 4.939,3.623 9.381,6.881 14.147,10.377 m 40.05,-21.863 c 2.14,-2.567 4.065,-4.878 6.316,-7.58 8.139,6.594 16.119,13.06 24.324,19.708 -8.378,5.996 -16.333,11.688 -24.554,17.571 -2.025,-2.778 -3.859,-5.295 -5.86,-8.04 4.69,-3.423 9.127,-6.661 13.888,-10.136 -4.81,-3.927 -9.364,-7.645 -14.114,-11.523 m -5.537,-17.524 c -7.017,20.261 -13.915,40.176 -20.89,60.314 -3.17,-1.123 -5.993,-2.123 -9.311,-3.299 6.972,-20.077 13.837,-39.852 20.888,-60.158 3.261,1.1 6.088,2.054 9.313,3.143 M 561.286,937.058 h 69.124 v 8.499 h -69.124 z m -0.04,23.089 h 69.145 v 8.617 h -69.145 z m 161.451,-47.02 c -0.009,-3.433 -0.143,-6.975 -0.972,-10.277 -3.248,-12.942 -13.801,-20.54 -28.498,-20.607 -20.481,-0.092 -40.964,-0.025 -61.446,-0.025 -22.697,0 -45.393,-0.085 -68.089,0.03 -17.645,0.091 -29.4,11.249 -29.467,28.441 -0.174,45.116 -0.052,90.232 -0.08,135.348 -0.003,4.386 1.462,7.925 4.619,11.093 18.756,18.821 37.426,37.727 56.033,56.696 2.615,2.666 5.431,3.909 9.159,3.906 29.892,-0.028 59.785,0.104 89.677,0.077 17.72,-0.017 29.086,-11.439 29.098,-29.062 0.021,-29.477 0.006,-58.955 0.007,-88.433 0,-29.062 0.031,-58.125 -0.041,-87.187" />
          <g
             transform="translate(774.6294,909.667)"
             id="g4538">
            <path
               inkscape:connector-curvature="0"
               id="path4540"
               style="fill:#000000;fill-opacity:1;fill-rule:nonzero;stroke:none"
               d="M 0,0 H 4.206 L -2.39,-17.548 h -3.086 l -5.295,11.738 -5.083,-11.738 h -3.055 L -25.807,0 h 4.205 L -17.366,-10.348 -12.858,0 h 4.114 l 4.781,-10.407 z" />
          </g>
          <g
             transform="translate(783.8579,902.8896)"
             id="g4542">
            <path
               inkscape:connector-curvature="0"
               id="path4544"
               style="fill:#000000;fill-opacity:1;fill-rule:nonzero;stroke:none"
               d="m 0,0 h 9.894 v 2.602 c 0,0.141 -0.072,0.212 -0.212,0.212 H 0.212 C 0.07,2.814 0,2.743 0,2.602 Z m 9.682,6.777 c 1.149,0 2.132,-0.409 2.949,-1.225 0.817,-0.818 1.226,-1.8 1.226,-2.95 V -3.993 H 0 v -2.603 c 0,-0.14 0.07,-0.211 0.212,-0.211 h 13.645 v -3.964 H 0.212 c -1.15,0 -2.133,0.409 -2.95,1.226 -0.817,0.816 -1.225,1.8 -1.225,2.949 v 9.198 c 0,1.15 0.408,2.132 1.225,2.95 0.817,0.816 1.8,1.225 2.95,1.225 z" />
          </g>
          <g
             transform="translate(814.7778,896.2939)"
             id="g4546">
            <path
               inkscape:connector-curvature="0"
               id="path4548"
               style="fill:#000000;fill-opacity:1;fill-rule:nonzero;stroke:none"
               d="M 0,0 V 9.197 C 0,9.339 -0.071,9.41 -0.211,9.41 h -9.47 c -0.142,0 -0.213,-0.071 -0.213,-0.213 V 0 c 0,-0.141 0.071,-0.211 0.213,-0.211 h 9.47 C -0.071,-0.211 0,-0.141 0,0 m -0.211,13.373 c 1.149,0 2.132,-0.409 2.949,-1.226 0.817,-0.817 1.225,-1.799 1.225,-2.95 V 0 c 0,-1.149 -0.408,-2.133 -1.225,-2.949 -0.817,-0.818 -1.8,-1.226 -2.949,-1.226 h -13.646 v 23.296 h 3.963 v -5.748 z" />
          </g>
          <g
             transform="translate(844.2764,896.2939)"
             id="g4550">
            <path
               inkscape:connector-curvature="0"
               id="path4552"
               style="fill:#000000;fill-opacity:1;fill-rule:nonzero;stroke:none"
               d="M 0,0 V 9.197 C 0,9.339 -0.071,9.41 -0.211,9.41 h -9.47 c -0.142,0 -0.212,-0.071 -0.212,-0.213 V 0 c 0,-0.141 0.07,-0.211 0.212,-0.211 h 9.47 C -0.071,-0.211 0,-0.141 0,0 m -0.211,13.373 c 1.149,0 2.132,-0.409 2.949,-1.226 0.817,-0.817 1.226,-1.799 1.226,-2.95 V 0 c 0,-1.149 -0.409,-2.133 -1.226,-2.949 -0.817,-0.818 -1.8,-1.226 -2.949,-1.226 h -9.682 v -6.959 h -3.964 v 24.507 z" />
          </g>
          <g
             transform="translate(854.624,909.667)"
             id="g4554">
            <path
               inkscape:connector-curvature="0"
               id="path4556"
               style="fill:#000000;fill-opacity:1;fill-rule:nonzero;stroke:none"
               d="M 0,0 H 9.742 V -3.963 H 0 c -0.141,0 -0.212,-0.071 -0.212,-0.213 v -13.372 h -3.964 v 13.372 c 0,1.151 0.409,2.133 1.226,2.95 C -2.133,-0.409 -1.15,0 0,0" />
          </g>
          <g
             transform="translate(880.0381,905.7041)"
             id="g4558">
            <path
               inkscape:connector-curvature="0"
               id="path4560"
               style="fill:#000000;fill-opacity:1;fill-rule:nonzero;stroke:none"
               d="M 0,0 H -9.47 C -9.611,0 -9.682,-0.071 -9.682,-0.213 V -9.41 c 0,-0.141 0.071,-0.211 0.212,-0.211 H 0 c 0.141,0 0.212,0.07 0.212,0.211 v 9.197 C 0.212,-0.071 0.141,0 0,0 M -9.47,3.963 H 0 c 1.149,0 2.133,-0.409 2.95,-1.226 0.817,-0.817 1.225,-1.8 1.225,-2.95 V -9.41 c 0,-1.15 -0.408,-2.133 -1.225,-2.949 C 2.133,-13.177 1.149,-13.585 0,-13.585 h -9.47 c -1.15,0 -2.133,0.408 -2.95,1.226 -0.817,0.816 -1.225,1.799 -1.225,2.949 v 9.197 c 0,1.15 0.408,2.133 1.225,2.95 0.817,0.817 1.8,1.226 2.95,1.226" />
          </g>
          <path
             inkscape:connector-curvature="0"
             id="path4562"
             style="fill:#000000;fill-opacity:1;fill-rule:nonzero;stroke:none"
             d="m 887.904,915.415 h 3.963 v -3.993 h -3.963 z m 3.964,-5.748 v -19.998 c 0,-1.149 -0.409,-2.134 -1.226,-2.95 -0.817,-0.818 -1.8,-1.226 -2.95,-1.226 h -7.564 v 3.994 h 7.564 c 0.141,0 0.212,0.06 0.212,0.182 v 19.998 z" />
          <g
             transform="translate(898.4028,902.8896)"
             id="g4564">
            <path
               inkscape:connector-curvature="0"
               id="path4566"
               style="fill:#000000;fill-opacity:1;fill-rule:nonzero;stroke:none"
               d="m 0,0 h 9.894 v 2.602 c 0,0.141 -0.071,0.212 -0.212,0.212 H 0.212 C 0.07,2.814 0,2.743 0,2.602 Z m 9.682,6.777 c 1.149,0 2.133,-0.409 2.95,-1.225 0.816,-0.818 1.225,-1.8 1.225,-2.95 V -3.993 H 0 v -2.603 c 0,-0.14 0.07,-0.211 0.212,-0.211 h 13.645 v -3.964 H 0.212 c -1.149,0 -2.133,0.409 -2.95,1.226 -0.817,0.816 -1.225,1.8 -1.225,2.949 v 9.198 c 0,1.15 0.408,2.132 1.225,2.95 0.817,0.816 1.801,1.225 2.95,1.225 z" />
          </g>
          <g
             transform="translate(919.1582,896.083)"
             id="g4568">
            <path
               inkscape:connector-curvature="0"
               id="path4570"
               style="fill:#000000;fill-opacity:1;fill-rule:nonzero;stroke:none"
               d="M 0,0 H 13.646 V -3.964 H 0 c -1.15,0 -2.133,0.408 -2.95,1.226 -0.817,0.816 -1.226,1.8 -1.226,2.949 v 9.197 c 0,1.151 0.409,2.133 1.226,2.95 0.817,0.817 1.8,1.226 2.95,1.226 H 13.584 V 9.621 H 0 c -0.142,0 -0.212,-0.071 -0.212,-0.213 V 0.211 C -0.212,0.07 -0.142,0 0,0" />
          </g>
          <g
             transform="translate(946.4185,905.7041)"
             id="g4572">
            <path
               inkscape:connector-curvature="0"
               id="path4574"
               style="fill:#000000;fill-opacity:1;fill-rule:nonzero;stroke:none"
               d="m 0,0 h -6.838 v -9.41 c 0,-0.141 0.07,-0.211 0.212,-0.211 H 0 v -3.964 h -6.626 c -1.17,0 -2.159,0.408 -2.965,1.226 -0.807,0.816 -1.211,1.799 -1.211,2.949 V 9.711 h 3.964 V 3.963 H 0 Z" />
          </g>
          <g
             transform="translate(966.5073,905.4912)"
             id="g4576">
            <path
               inkscape:connector-curvature="0"
               id="path4578"
               style="fill:#000000;fill-opacity:1;fill-rule:nonzero;stroke:none"
               d="M 0,0 V -0.755 H -3.964 V 0 c 0,0.142 -0.071,0.213 -0.212,0.213 h -9.47 c -0.141,0 -0.211,-0.071 -0.211,-0.213 v -2.42 c 0,-0.121 0.07,-0.182 0.211,-0.182 h 9.47 c 1.17,0 2.158,-0.408 2.966,-1.224 C -0.404,-4.644 0,-5.627 0,-6.776 v -2.421 c 0,-1.15 -0.404,-2.133 -1.21,-2.949 -0.808,-0.818 -1.796,-1.226 -2.966,-1.226 h -9.47 c -1.149,0 -2.133,0.408 -2.95,1.226 -0.817,0.816 -1.225,1.799 -1.225,2.949 v 0.757 h 3.964 v -0.757 c 0,-0.141 0.07,-0.211 0.211,-0.211 h 9.47 c 0.141,0 0.212,0.07 0.212,0.211 v 2.421 c 0,0.12 -0.071,0.181 -0.212,0.181 h -9.47 c -1.149,0 -2.133,0.408 -2.95,1.226 -0.817,0.816 -1.225,1.799 -1.225,2.949 V 0 c 0,1.15 0.408,2.133 1.225,2.95 0.817,0.817 1.801,1.226 2.95,1.226 h 9.47 c 1.17,0 2.158,-0.409 2.966,-1.226 C -0.404,2.133 0,1.15 0,0" />
          </g>
          <g
             transform="translate(983.0869,896.083)"
             id="g4580">
            <path
               inkscape:connector-curvature="0"
               id="path4582"
               style="fill:#000000;fill-opacity:1;fill-rule:nonzero;stroke:none"
               d="M 0,0 H 12.616 L 0.211,6.263 H 0 c -0.142,0 -0.212,-0.062 -0.212,-0.182 V 0.211 C -0.212,0.07 -0.142,0 0,0 m 17.397,1.936 3.661,-2.148 v -3.994 l -4.176,2.36 C 16.539,-2.491 16.04,-3.006 15.384,-3.389 14.729,-3.772 14.008,-3.964 13.222,-3.964 H 0 c -1.15,0 -2.134,0.408 -2.951,1.226 -0.816,0.816 -1.225,1.8 -1.225,2.949 v 5.87 c 0,0.443 0.136,0.918 0.409,1.422 0.272,0.504 0.641,0.857 1.104,1.06 -0.242,0.422 -0.362,1.047 -0.362,1.875 v 3.207 c 0,1.149 0.408,2.132 1.225,2.95 0.817,0.816 1.8,1.225 2.949,1.225 h 11.226 c 1.008,0 1.91,-0.328 2.708,-0.984 0.796,-0.655 1.275,-1.477 1.436,-2.465 v -2.572 h -3.963 v 1.815 c 0,0.141 -0.061,0.212 -0.181,0.212 H 1.149 c -0.141,0 -0.212,-0.071 -0.212,-0.212 V 9.862 L 13.433,3.569 v 3.298 h 3.964 z" />
          </g>
          <g
             transform="translate(1030.2842,909.667)"
             id="g4584">
            <path
               inkscape:connector-curvature="0"
               id="path4586"
               style="fill:#000000;fill-opacity:1;fill-rule:nonzero;stroke:none"
               d="m 0,0 c 1.13,0 2.108,-0.409 2.936,-1.226 0.826,-0.817 1.24,-1.799 1.24,-2.95 V -17.548 H 0.212 v 13.372 c 0,0.142 -0.071,0.213 -0.212,0.213 h -9.47 c -0.14,0 -0.211,-0.071 -0.211,-0.213 v -13.372 h -3.964 V 5.748 h 3.964 V 0 Z" />
          </g>
          <g
             transform="translate(1050.6465,896.083)"
             id="g4588">
            <path
               inkscape:connector-curvature="0"
               id="path4590"
               style="fill:#000000;fill-opacity:1;fill-rule:nonzero;stroke:none"
               d="M 0,0 V 2.813 H -9.894 V 0.211 C -9.894,0.07 -9.823,0 -9.682,0 Z m -0.212,13.584 c 1.149,0 2.133,-0.409 2.949,-1.226 0.818,-0.817 1.226,-1.799 1.226,-2.95 V -3.964 H -9.682 c -1.149,0 -2.132,0.408 -2.95,1.226 -0.816,0.816 -1.224,1.8 -1.224,2.949 V 6.807 H 0 V 9.408 C 0,9.55 -0.071,9.621 -0.212,9.621 h -13.644 v 3.963 z" />
          </g>
          <g
             transform="translate(1061.4473,909.667)"
             id="g4592">
            <path
               inkscape:connector-curvature="0"
               id="path4594"
               style="fill:#000000;fill-opacity:1;fill-rule:nonzero;stroke:none"
               d="M 0,0 H 9.742 V -3.963 H 0 c -0.142,0 -0.212,-0.071 -0.212,-0.213 v -13.372 h -3.963 v 13.372 c 0,1.151 0.408,2.133 1.225,2.95 C -2.133,-0.409 -1.149,0 0,0" />
          </g>
          <g
             transform="translate(1076.5449,896.083)"
             id="g4596">
            <path
               inkscape:connector-curvature="0"
               id="path4598"
               style="fill:#000000;fill-opacity:1;fill-rule:nonzero;stroke:none"
               d="M 0,0 H 9.5 C 9.641,0 9.712,0.07 9.712,0.211 V 9.408 C 9.712,9.55 9.641,9.621 9.5,9.621 H 0 c -0.121,0 -0.182,-0.071 -0.182,-0.213 V 0.211 C -0.182,0.07 -0.121,0 0,0 m 9.712,19.332 h 3.964 V -3.964 H 0 c -1.15,0 -2.134,0.408 -2.95,1.226 -0.818,0.816 -1.226,1.8 -1.226,2.949 v 9.197 c 0,1.151 0.408,2.133 1.226,2.95 0.816,0.817 1.8,1.226 2.95,1.226 h 9.712 z" />
          </g>
          <g
             transform="translate(1092.0352,896.415)"
             id="g4600">
            <path
               inkscape:connector-curvature="0"
               id="path4602"
               style="fill:#000000;fill-opacity:1;fill-rule:nonzero;stroke:none"
               d="m 0,0 14.462,17.488 h 1.059 V 13.222 L 1.059,-4.296 H 0 Z" />
          </g>
          <g
             transform="translate(1126.8896,905.4912)"
             id="g4604">
            <path
               inkscape:connector-curvature="0"
               id="path4606"
               style="fill:#000000;fill-opacity:1;fill-rule:nonzero;stroke:none"
               d="M 0,0 V -0.755 H -3.964 V 0 c 0,0.142 -0.071,0.213 -0.212,0.213 h -9.47 c -0.141,0 -0.211,-0.071 -0.211,-0.213 v -2.42 c 0,-0.121 0.07,-0.182 0.211,-0.182 h 9.47 c 1.169,0 2.157,-0.408 2.965,-1.224 C -0.404,-4.644 0,-5.627 0,-6.776 v -2.421 c 0,-1.15 -0.404,-2.133 -1.211,-2.949 -0.808,-0.818 -1.796,-1.226 -2.965,-1.226 h -9.47 c -1.149,0 -2.133,0.408 -2.95,1.226 -0.816,0.816 -1.225,1.799 -1.225,2.949 v 0.757 h 3.964 v -0.757 c 0,-0.141 0.07,-0.211 0.211,-0.211 h 9.47 c 0.141,0 0.212,0.07 0.212,0.211 v 2.421 c 0,0.12 -0.071,0.181 -0.212,0.181 h -9.47 c -1.149,0 -2.133,0.408 -2.95,1.226 -0.816,0.816 -1.225,1.799 -1.225,2.949 V 0 c 0,1.15 0.409,2.133 1.225,2.95 0.817,0.817 1.801,1.226 2.95,1.226 h 9.47 c 1.169,0 2.157,-0.409 2.965,-1.226 C -0.404,2.133 0,1.15 0,0" />
          </g>
          <g
             transform="translate(1142.9238,905.7041)"
             id="g4608">
            <path
               inkscape:connector-curvature="0"
               id="path4610"
               style="fill:#000000;fill-opacity:1;fill-rule:nonzero;stroke:none"
               d="M 0,0 H -9.47 C -9.61,0 -9.681,-0.071 -9.681,-0.213 V -9.41 c 0,-0.141 0.071,-0.211 0.211,-0.211 H 0 c 0.141,0 0.212,0.07 0.212,0.211 v 9.197 C 0.212,-0.071 0.141,0 0,0 M -9.47,3.963 H 0 c 1.15,0 2.133,-0.409 2.95,-1.226 0.818,-0.817 1.226,-1.8 1.226,-2.95 V -9.41 c 0,-1.15 -0.408,-2.133 -1.226,-2.949 -0.817,-0.818 -1.8,-1.226 -2.95,-1.226 h -9.47 c -1.149,0 -2.133,0.408 -2.95,1.226 -0.816,0.816 -1.225,1.799 -1.225,2.949 v 9.197 c 0,1.15 0.409,2.133 1.225,2.95 0.817,0.817 1.801,1.226 2.95,1.226" />
          </g>
          <g
             transform="translate(1154.4512,911.4219)"
             id="g4612">
            <path
               inkscape:connector-curvature="0"
               id="path4614"
               style="fill:#000000;fill-opacity:1;fill-rule:nonzero;stroke:none"
               d="m 0,0 c -0.142,0 -0.212,-0.061 -0.212,-0.182 v -1.573 h 6.838 v -3.963 h -6.838 v -13.585 h -3.964 v 19.121 c 0,1.151 0.405,2.133 1.211,2.951 C -2.158,3.585 -1.17,3.993 0,3.993 H 6.626 V 0 Z" />
          </g>
          <g
             transform="translate(1174.6006,905.7041)"
             id="g4616">
            <path
               inkscape:connector-curvature="0"
               id="path4618"
               style="fill:#000000;fill-opacity:1;fill-rule:nonzero;stroke:none"
               d="m 0,0 h -6.838 v -9.41 c 0,-0.141 0.07,-0.211 0.212,-0.211 H 0 v -3.964 h -6.626 c -1.17,0 -2.158,0.408 -2.965,1.226 -0.806,0.816 -1.211,1.799 -1.211,2.949 V 9.711 h 3.964 V 3.963 H 0 Z" />
          </g>
          <g
             transform="translate(1202.5264,909.667)"
             id="g4620">
            <path
               inkscape:connector-curvature="0"
               id="path4622"
               style="fill:#000000;fill-opacity:1;fill-rule:nonzero;stroke:none"
               d="m 0,0 h 4.205 l -6.596,-17.548 h -3.086 l -5.294,11.738 -5.083,-11.738 h -3.055 L -25.809,0 h 4.206 L -17.366,-10.348 -12.859,0 h 4.115 l 4.78,-10.407 z" />
          </g>
          <g
             transform="translate(1222.5254,896.083)"
             id="g4624">
            <path
               inkscape:connector-curvature="0"
               id="path4626"
               style="fill:#000000;fill-opacity:1;fill-rule:nonzero;stroke:none"
               d="M 0,0 V 2.813 H -9.895 V 0.211 C -9.895,0.07 -9.824,0 -9.683,0 Z m -0.212,13.584 c 1.149,0 2.133,-0.409 2.949,-1.226 0.818,-0.817 1.226,-1.799 1.226,-2.95 V -3.964 H -9.683 c -1.149,0 -2.132,0.408 -2.949,1.226 -0.817,0.816 -1.225,1.8 -1.225,2.949 V 6.807 H 0 V 9.408 C 0,9.55 -0.071,9.621 -0.212,9.621 h -13.645 v 3.963 z" />
          </g>
          <g
             transform="translate(1233.3262,909.667)"
             id="g4628">
            <path
               inkscape:connector-curvature="0"
               id="path4630"
               style="fill:#000000;fill-opacity:1;fill-rule:nonzero;stroke:none"
               d="M 0,0 H 9.741 V -3.963 H 0 c -0.143,0 -0.213,-0.071 -0.213,-0.213 v -13.372 h -3.963 v 13.372 c 0,1.151 0.409,2.133 1.226,2.95 C -2.134,-0.409 -1.149,0 0,0" />
          </g>
          <g
             transform="translate(1249.0596,902.8896)"
             id="g4632">
            <path
               inkscape:connector-curvature="0"
               id="path4634"
               style="fill:#000000;fill-opacity:1;fill-rule:nonzero;stroke:none"
               d="m 0,0 h 9.893 v 2.602 c 0,0.141 -0.072,0.212 -0.212,0.212 H 0.211 C 0.07,2.814 0,2.743 0,2.602 Z m 9.681,6.777 c 1.15,0 2.132,-0.409 2.949,-1.225 0.818,-0.818 1.226,-1.8 1.226,-2.95 V -3.993 H 0 v -2.603 c 0,-0.14 0.07,-0.211 0.211,-0.211 h 13.645 v -3.964 H 0.211 c -1.149,0 -2.133,0.409 -2.95,1.226 -0.817,0.816 -1.226,1.8 -1.226,2.949 v 9.198 c 0,1.15 0.409,2.132 1.226,2.95 0.817,0.816 1.801,1.225 2.95,1.225 z" />
          </g>
          <g
             transform="translate(1289.2373,896.083)"
             id="g4636">
            <path
               inkscape:connector-curvature="0"
               id="path4638"
               style="fill:#000000;fill-opacity:1;fill-rule:nonzero;stroke:none"
               d="M 0,0 V 2.813 H -9.895 V 0.211 C -9.895,0.07 -9.824,0 -9.682,0 Z m -0.212,13.584 c 1.149,0 2.133,-0.409 2.949,-1.226 0.818,-0.817 1.226,-1.799 1.226,-2.95 V -3.964 H -9.682 c -1.149,0 -2.133,0.408 -2.95,1.226 -0.817,0.816 -1.225,1.8 -1.225,2.949 V 6.807 H 0 V 9.408 C 0,9.55 -0.071,9.621 -0.212,9.621 h -13.645 v 3.963 z" />
          </g>
          <g
             transform="translate(1313.3809,905.4912)"
             id="g4640">
            <path
               inkscape:connector-curvature="0"
               id="path4642"
               style="fill:#000000;fill-opacity:1;fill-rule:nonzero;stroke:none"
               d="M 0,0 V -0.755 H -3.964 V 0 c 0,0.142 -0.071,0.213 -0.212,0.213 h -9.47 c -0.141,0 -0.211,-0.071 -0.211,-0.213 v -2.42 c 0,-0.121 0.07,-0.182 0.211,-0.182 h 9.47 c 1.169,0 2.157,-0.408 2.965,-1.224 C -0.404,-4.644 0,-5.627 0,-6.776 v -2.421 c 0,-1.15 -0.404,-2.133 -1.211,-2.949 -0.808,-0.818 -1.796,-1.226 -2.965,-1.226 h -9.47 c -1.149,0 -2.133,0.408 -2.95,1.226 -0.816,0.816 -1.225,1.799 -1.225,2.949 v 0.757 h 3.964 v -0.757 c 0,-0.141 0.07,-0.211 0.211,-0.211 h 9.47 c 0.141,0 0.212,0.07 0.212,0.211 v 2.421 c 0,0.12 -0.071,0.181 -0.212,0.181 h -9.47 c -1.149,0 -2.133,0.408 -2.95,1.226 -0.816,0.816 -1.225,1.799 -1.225,2.949 V 0 c 0,1.15 0.409,2.133 1.225,2.95 0.817,0.817 1.801,1.226 2.95,1.226 h 9.47 c 1.169,0 2.157,-0.409 2.965,-1.226 C -0.404,2.133 0,1.15 0,0" />
          </g>
          <g
             transform="translate(1334.1357,905.4912)"
             id="g4644">
            <path
               inkscape:connector-curvature="0"
               id="path4646"
               style="fill:#000000;fill-opacity:1;fill-rule:nonzero;stroke:none"
               d="M 0,0 V -0.755 H -3.964 V 0 c 0,0.142 -0.071,0.213 -0.212,0.213 h -9.47 c -0.141,0 -0.211,-0.071 -0.211,-0.213 v -2.42 c 0,-0.121 0.07,-0.182 0.211,-0.182 h 9.47 c 1.169,0 2.157,-0.408 2.965,-1.224 C -0.404,-4.644 0,-5.627 0,-6.776 v -2.421 c 0,-1.15 -0.404,-2.133 -1.211,-2.949 -0.808,-0.818 -1.796,-1.226 -2.965,-1.226 h -9.47 c -1.149,0 -2.133,0.408 -2.95,1.226 -0.816,0.816 -1.225,1.799 -1.225,2.949 v 0.757 h 3.964 v -0.757 c 0,-0.141 0.07,-0.211 0.211,-0.211 h 9.47 c 0.141,0 0.212,0.07 0.212,0.211 v 2.421 c 0,0.12 -0.071,0.181 -0.212,0.181 h -9.47 c -1.149,0 -2.133,0.408 -2.95,1.226 -0.816,0.816 -1.225,1.799 -1.225,2.949 V 0 c 0,1.15 0.409,2.133 1.225,2.95 0.817,0.817 1.801,1.226 2.95,1.226 h 9.47 c 1.169,0 2.157,-0.409 2.965,-1.226 C -0.404,2.133 0,1.15 0,0" />
          </g>
          <path
             inkscape:connector-curvature="0"
             id="path4648"
             style="fill:#000000;fill-opacity:1;fill-rule:nonzero;stroke:none"
             d="m 1337.191,909.667 h 3.963 v -17.548 h -3.963 z m 0,5.748 h 3.963 v -3.993 h -3.963 z" />
          <g
             transform="translate(1361.9395,905.4912)"
             id="g4650">
            <path
               inkscape:connector-curvature="0"
               id="path4652"
               style="fill:#000000;fill-opacity:1;fill-rule:nonzero;stroke:none"
               d="M 0,0 V -0.755 H -3.964 V 0 c 0,0.142 -0.071,0.213 -0.212,0.213 h -9.47 c -0.141,0 -0.211,-0.071 -0.211,-0.213 v -2.42 c 0,-0.121 0.07,-0.182 0.211,-0.182 h 9.47 c 1.169,0 2.157,-0.408 2.965,-1.224 C -0.404,-4.644 0,-5.627 0,-6.776 v -2.421 c 0,-1.15 -0.404,-2.133 -1.211,-2.949 -0.808,-0.818 -1.796,-1.226 -2.965,-1.226 h -9.47 c -1.149,0 -2.132,0.408 -2.95,1.226 -0.816,0.816 -1.225,1.799 -1.225,2.949 v 0.757 h 3.964 v -0.757 c 0,-0.141 0.07,-0.211 0.211,-0.211 h 9.47 c 0.141,0 0.212,0.07 0.212,0.211 v 2.421 c 0,0.12 -0.071,0.181 -0.212,0.181 h -9.47 c -1.149,0 -2.132,0.408 -2.95,1.226 -0.816,0.816 -1.225,1.799 -1.225,2.949 V 0 c 0,1.15 0.409,2.133 1.225,2.95 0.818,0.817 1.801,1.226 2.95,1.226 h 9.47 c 1.169,0 2.157,-0.409 2.965,-1.226 C -0.404,2.133 0,1.15 0,0" />
          </g>
          <g
             transform="translate(1375.8262,905.7041)"
             id="g4654">
            <path
               inkscape:connector-curvature="0"
               id="path4656"
               style="fill:#000000;fill-opacity:1;fill-rule:nonzero;stroke:none"
               d="m 0,0 h -6.838 v -9.41 c 0,-0.141 0.07,-0.211 0.212,-0.211 H 0 v -3.964 h -6.626 c -1.171,0 -2.159,0.408 -2.966,1.226 -0.806,0.816 -1.21,1.799 -1.21,2.949 V 9.711 h 3.964 V 3.963 H 0 Z" />
          </g>
          <g
             transform="translate(1392.0732,896.083)"
             id="g4658">
            <path
               inkscape:connector-curvature="0"
               id="path4660"
               style="fill:#000000;fill-opacity:1;fill-rule:nonzero;stroke:none"
               d="M 0,0 V 2.813 H -9.894 V 0.211 C -9.894,0.07 -9.823,0 -9.682,0 Z m -0.212,13.584 c 1.149,0 2.133,-0.409 2.949,-1.226 0.818,-0.817 1.226,-1.799 1.226,-2.95 V -3.964 H -9.682 c -1.149,0 -2.132,0.408 -2.95,1.226 -0.816,0.816 -1.224,1.8 -1.224,2.949 V 6.807 H 0 V 9.408 C 0,9.55 -0.071,9.621 -0.212,9.621 h -13.644 v 3.963 z" />
          </g>
          <g
             transform="translate(1412.6455,909.667)"
             id="g4662">
            <path
               inkscape:connector-curvature="0"
               id="path4664"
               style="fill:#000000;fill-opacity:1;fill-rule:nonzero;stroke:none"
               d="m 0,0 c 1.15,0 2.133,-0.409 2.95,-1.226 0.818,-0.817 1.227,-1.799 1.227,-2.95 V -17.548 H 0.212 v 13.372 c 0,0.142 -0.071,0.213 -0.212,0.213 h -9.47 c -0.14,0 -0.211,-0.071 -0.211,-0.213 v -13.372 h -3.964 V 0 Z" />
          </g>
          <g
             transform="translate(1423.3867,896.083)"
             id="g4666">
            <path
               inkscape:connector-curvature="0"
               id="path4668"
               style="fill:#000000;fill-opacity:1;fill-rule:nonzero;stroke:none"
               d="M 0,0 H 13.646 V -3.964 H 0 c -1.148,0 -2.133,0.408 -2.949,1.226 -0.818,0.816 -1.226,1.8 -1.226,2.949 v 9.197 c 0,1.151 0.408,2.133 1.226,2.95 0.816,0.817 1.801,1.226 2.949,1.226 H 13.585 V 9.621 H 0 c -0.141,0 -0.211,-0.071 -0.211,-0.213 V 0.211 C -0.211,0.07 -0.141,0 0,0" />
          </g>
          <g
             transform="translate(1443.5078,902.8896)"
             id="g4670">
            <path
               inkscape:connector-curvature="0"
               id="path4672"
               style="fill:#000000;fill-opacity:1;fill-rule:nonzero;stroke:none"
               d="m 0,0 h 9.893 v 2.602 c 0,0.141 -0.072,0.212 -0.212,0.212 H 0.211 C 0.07,2.814 0,2.743 0,2.602 Z m 9.681,6.777 c 1.15,0 2.132,-0.409 2.95,-1.225 0.817,-0.818 1.225,-1.8 1.225,-2.95 V -3.993 H 0 v -2.603 c 0,-0.14 0.07,-0.211 0.211,-0.211 h 13.645 v -3.964 H 0.211 c -1.149,0 -2.133,0.409 -2.949,1.226 -0.818,0.816 -1.226,1.8 -1.226,2.949 v 9.198 c 0,1.15 0.408,2.132 1.226,2.95 0.816,0.816 1.8,1.225 2.949,1.225 z" />
          </g>
          <g
             transform="translate(804.4541,1076.2651)"
             id="g4674">
            <path
               inkscape:connector-curvature="0"
               id="path4676"
               style="fill:#000000;fill-opacity:1;fill-rule:nonzero;stroke:none"
               d="m 0,0 c 0,2.449 -0.395,4.688 -1.184,6.718 -0.79,2.03 -1.909,3.762 -3.359,5.196 -1.45,1.433 -3.183,2.544 -5.196,3.335 -2.014,0.789 -4.245,1.183 -6.693,1.183 h -27.693 v -44.173 h 27.693 c 2.448,0 4.679,0.394 6.693,1.184 2.013,0.789 3.746,1.9 5.196,3.334 1.45,1.434 2.569,3.158 3.359,5.172 0.789,2.013 1.184,4.261 1.184,6.742 z m 12.566,-11.309 c 0,-4.222 -0.734,-8.103 -2.199,-11.648 -1.467,-3.544 -3.489,-6.597 -6.066,-9.158 -2.578,-2.562 -5.639,-4.567 -9.182,-6.017 -3.545,-1.45 -7.395,-2.175 -11.551,-2.175 H -50.36 c -0.902,0 -1.74,0.161 -2.514,0.483 -0.772,0.322 -1.441,0.765 -2.005,1.329 -0.564,0.564 -1.008,1.233 -1.329,2.006 -0.323,0.773 -0.483,1.611 -0.483,2.513 v 56.643 c 0,0.87 0.16,1.692 0.483,2.465 0.321,0.773 0.765,1.45 1.329,2.03 0.564,0.58 1.233,1.031 2.005,1.353 0.774,0.322 1.612,0.483 2.514,0.483 h 33.928 c 4.156,0 8.006,-0.725 11.551,-2.174 3.543,-1.45 6.604,-3.456 9.182,-6.017 C 6.878,18.245 8.9,15.184 10.367,11.624 11.832,8.063 12.566,4.188 12.566,0 Z" />
          </g>
          <g
             transform="translate(908.499,1081.9683)"
             id="g4678">
            <path
               inkscape:connector-curvature="0"
               id="path4680"
               style="fill:#000000;fill-opacity:1;fill-rule:nonzero;stroke:none"
               d="m 0,0 c 0,-2.868 -0.354,-5.43 -1.063,-7.685 -0.709,-2.255 -1.668,-4.245 -2.875,-5.968 -1.209,-1.724 -2.604,-3.198 -4.182,-4.423 -1.579,-1.225 -3.231,-2.231 -4.954,-3.02 -1.724,-0.79 -3.464,-1.361 -5.219,-1.716 -1.756,-0.355 -3.408,-0.531 -4.953,-0.531 L 2.996,-46.01 h -19.429 l -26.195,22.667 h -9.037 v 12.566 h 28.419 c 1.578,0.128 3.02,0.459 4.325,0.99 1.304,0.532 2.432,1.248 3.382,2.151 0.95,0.901 1.684,1.989 2.2,3.262 0.515,1.272 0.772,2.731 0.772,4.374 v 7.926 c 0,0.709 -0.088,1.249 -0.264,1.619 -0.178,0.37 -0.403,0.644 -0.677,0.822 -0.275,0.177 -0.565,0.282 -0.87,0.315 -0.307,0.031 -0.589,0.047 -0.846,0.047 H -56.691 V -46.01 h -12.566 v 62.974 c 0,0.87 0.161,1.692 0.483,2.465 0.321,0.773 0.765,1.45 1.329,2.03 0.564,0.58 1.233,1.031 2.006,1.353 0.773,0.322 1.611,0.483 2.513,0.483 h 47.702 c 2.803,0 5.171,-0.507 7.104,-1.522 1.933,-1.015 3.503,-2.289 4.712,-3.819 C -2.199,16.424 -1.33,14.772 -0.797,13 -0.266,11.229 0,9.57 0,8.023 Z" />
          </g>
          <path
             inkscape:connector-curvature="0"
             id="path4682"
             style="fill:#000000;fill-opacity:1;fill-rule:nonzero;stroke:none"
             d="m 987.992,1064.28 h -39.679 v 12.662 h 39.679 z m 5.655,-28.322 h -45.334 c -1.74,0 -3.641,0.306 -5.703,0.918 -2.062,0.612 -3.971,1.62 -5.727,3.021 -1.757,1.402 -3.223,3.222 -4.399,5.461 -1.175,2.239 -1.763,4.986 -1.763,8.241 v 45.333 c 0,0.87 0.161,1.693 0.484,2.465 0.321,0.773 0.764,1.45 1.328,2.03 0.563,0.58 1.233,1.031 2.006,1.353 0.773,0.322 1.61,0.483 2.514,0.483 h 56.594 v -12.566 h -50.36 v -39.098 c 0,-1.643 0.435,-2.9 1.305,-3.77 0.869,-0.87 2.142,-1.305 3.817,-1.305 h 45.238 z" />
          <path
             inkscape:connector-curvature="0"
             id="path4684"
             style="fill:#000000;fill-opacity:1;fill-rule:nonzero;stroke:none"
             d="m 1028.338,1035.958 h -12.565 v 69.305 h 12.565 z" />
          <g
             transform="translate(1115.5654,1092.6973)"
             id="g4686">
            <path
               inkscape:connector-curvature="0"
               id="path4688"
               style="fill:#000000;fill-opacity:1;fill-rule:nonzero;stroke:none"
               d="M 0,0 H -27.694 V -56.739 H -40.26 V 0 H -68.001 V 12.566 H 0 Z" />
          </g>
          <g
             transform="translate(1193.9951,1101.4941)"
             id="g4690">
            <path
               inkscape:connector-curvature="0"
               id="path4692"
               style="fill:#000000;fill-opacity:1;fill-rule:nonzero;stroke:none"
               d="M 0,0 C 0.483,-1.129 0.628,-2.313 0.435,-3.552 0.241,-4.794 -0.274,-5.848 -1.111,-6.718 L -42.579,-52.97 H -0.097 V -65.536 H -56.74 c -1.224,0 -2.361,0.346 -3.406,1.039 -1.048,0.693 -1.831,1.603 -2.345,2.731 -0.548,1.127 -0.718,2.303 -0.507,3.528 0.209,1.224 0.716,2.288 1.521,3.19 l 41.565,46.251 H -62.491 V 3.769 h 56.739 c 1.225,0 2.36,-0.346 3.408,-1.039 C -1.298,2.038 -0.517,1.127 0,0" />
          </g>
          <g
             transform="translate(1284.459,1041.3232)"
             id="g4694">
            <path
               inkscape:connector-curvature="0"
               id="path4696"
               style="fill:#000000;fill-opacity:1;fill-rule:nonzero;stroke:none"
               d="M 0,0 C 0,-0.903 -0.169,-1.74 -0.508,-2.514 -0.846,-3.287 -1.298,-3.957 -1.86,-4.52 -2.425,-5.083 -3.093,-5.526 -3.866,-5.848 -4.64,-6.17 -5.461,-6.332 -6.331,-6.332 c -0.773,0 -1.555,0.145 -2.345,0.435 -0.789,0.29 -1.49,0.757 -2.101,1.402 L -56.69,43.448 V -5.365 h -12.567 v 63.941 c 0,1.288 0.362,2.456 1.088,3.504 0.725,1.046 1.65,1.828 2.778,2.344 1.193,0.483 2.416,0.603 3.673,0.363 1.257,-0.243 2.336,-0.831 3.239,-1.765 L -12.566,15.126 V 63.94 H 0 Z" />
          </g>
          <path
             inkscape:connector-curvature="0"
             id="path4698"
             style="fill:#000000;fill-opacity:1;fill-rule:nonzero;stroke:none"
             d="m 1365.934,1064.28 h -39.679 v 12.662 h 39.679 z m 5.655,-28.322 h -45.334 c -1.74,0 -3.642,0.306 -5.703,0.918 -2.062,0.612 -3.972,1.62 -5.727,3.021 -1.757,1.402 -3.223,3.222 -4.399,5.461 -1.175,2.239 -1.764,4.986 -1.764,8.241 v 45.333 c 0,0.87 0.161,1.693 0.484,2.465 0.322,0.773 0.765,1.45 1.329,2.03 0.563,0.58 1.232,1.031 2.005,1.353 0.774,0.322 1.611,0.483 2.514,0.483 h 56.595 v -12.566 h -50.361 v -39.098 c 0,-1.643 0.435,-2.9 1.305,-3.77 0.87,-0.87 2.143,-1.305 3.818,-1.305 h 45.238 z" />
          <g
             transform="translate(1462.874,1081.9683)"
             id="g4700">
            <path
               inkscape:connector-curvature="0"
               id="path4702"
               style="fill:#000000;fill-opacity:1;fill-rule:nonzero;stroke:none"
               d="m 0,0 c 0,-2.868 -0.354,-5.43 -1.063,-7.685 -0.708,-2.255 -1.666,-4.245 -2.875,-5.968 -1.209,-1.724 -2.602,-3.198 -4.181,-4.423 -1.579,-1.225 -3.231,-2.231 -4.954,-3.02 -1.724,-0.79 -3.463,-1.361 -5.219,-1.716 -1.757,-0.355 -3.408,-0.531 -4.954,-0.531 L 2.996,-46.01 h -19.428 l -26.195,22.667 h -9.038 v 12.566 h 28.419 c 1.578,0.128 3.02,0.459 4.325,0.99 1.305,0.532 2.433,1.248 3.383,2.151 0.95,0.901 1.684,1.989 2.2,3.262 0.514,1.272 0.773,2.731 0.773,4.374 v 7.926 c 0,0.709 -0.089,1.249 -0.266,1.619 -0.177,0.37 -0.403,0.644 -0.677,0.822 -0.274,0.177 -0.563,0.282 -0.869,0.315 -0.308,0.031 -0.589,0.047 -0.847,0.047 H -56.69 V -46.01 h -12.566 v 62.974 c 0,0.87 0.16,1.692 0.483,2.465 0.322,0.773 0.764,1.45 1.33,2.03 0.562,0.58 1.232,1.031 2.005,1.353 0.773,0.322 1.611,0.483 2.512,0.483 h 47.702 c 2.804,0 5.171,-0.507 7.105,-1.522 1.933,-1.015 3.504,-2.289 4.713,-3.819 C -2.198,16.424 -1.328,14.772 -0.797,13 -0.265,11.229 0,9.57 0,8.023 Z" />
          </g>
          <g
             transform="translate(813.8096,1009.2065)"
             id="g4704">
            <path
               inkscape:connector-curvature="0"
               id="path4706"
               style="fill:#000000;fill-opacity:1;fill-rule:nonzero;stroke:none"
               d="m 0,0 -8.294,-46.45 c -0.185,-0.923 -0.6,-1.717 -1.245,-2.384 -0.646,-0.669 -1.429,-1.095 -2.35,-1.28 -0.945,-0.161 -1.838,-0.057 -2.678,0.312 -0.842,0.367 -1.504,0.944 -1.988,1.727 l -16.451,27.028 -16.486,-27.028 c -0.392,-0.668 -0.927,-1.187 -1.607,-1.555 -0.68,-0.368 -1.412,-0.553 -2.194,-0.553 -1.084,0 -2.04,0.346 -2.869,1.037 -0.83,0.691 -1.337,1.589 -1.521,2.696 L -66.047,0 h 9.125 l 5.944,-32.729 14.17,22.603 c 0.392,0.667 0.927,1.186 1.607,1.554 0.68,0.369 1.411,0.554 2.195,0.554 0.783,0 1.509,-0.185 2.177,-0.554 0.668,-0.368 1.222,-0.887 1.659,-1.554 L -15.069,-32.729 -9.124,0 Z" />
          </g>
          <path
             inkscape:connector-curvature="0"
             id="path4708"
             style="fill:#000000;fill-opacity:1;fill-rule:nonzero;stroke:none"
             d="m 869.308,979.898 h -28.375 v 9.055 h 28.375 z m 4.043,-20.252 h -32.418 c -1.245,0 -2.604,0.218 -4.079,0.657 -1.474,0.436 -2.839,1.157 -4.095,2.159 -1.256,1.003 -2.304,2.305 -3.145,3.905 -0.842,1.602 -1.261,3.567 -1.261,5.894 v 32.418 c 0,0.622 0.115,1.21 0.345,1.763 0.23,0.553 0.548,1.036 0.951,1.451 0.403,0.415 0.881,0.737 1.434,0.968 0.553,0.23 1.152,0.346 1.797,0.346 h 40.471 v -8.986 h -36.012 v -27.96 c 0,-1.176 0.311,-2.074 0.932,-2.697 0.623,-0.622 1.533,-0.932 2.731,-0.932 h 32.349 z" />
          <g
             transform="translate(929.5767,972.2607)"
             id="g4710">
            <path
               inkscape:connector-curvature="0"
               id="path4712"
               style="fill:#000000;fill-opacity:1;fill-rule:nonzero;stroke:none"
               d="m 0,0 c 0,1.175 -0.185,2.229 -0.553,3.162 -0.369,0.934 -0.888,1.734 -1.556,2.402 -0.668,0.668 -1.474,1.181 -2.419,1.539 -0.945,0.356 -2.004,0.535 -3.18,0.535 H -27.96 v 9.054 h 16.209 c 1.174,0 2.234,0.179 3.179,0.537 0.945,0.357 1.751,0.869 2.42,1.538 0.667,0.668 1.18,1.468 1.538,2.402 0.357,0.933 0.535,1.986 0.535,3.162 v 1.693 c 0,1.29 -0.622,1.936 -1.866,1.936 h -25.61 V -3.629 h 29.654 c 0.161,0 0.357,0.012 0.588,0.034 0.23,0.023 0.437,0.092 0.621,0.208 0.185,0.115 0.345,0.311 0.484,0.587 C -0.069,-2.522 0,-2.144 0,-1.659 Z m 8.985,-1.729 c 0,-1.105 -0.19,-2.292 -0.57,-3.559 -0.38,-1.268 -1.002,-2.442 -1.866,-3.525 -0.864,-1.083 -1.988,-1.988 -3.37,-2.713 -1.382,-0.726 -3.075,-1.089 -5.08,-1.089 h -34.112 c -0.646,0 -1.245,0.115 -1.798,0.345 -0.553,0.231 -1.031,0.547 -1.434,0.951 -0.403,0.402 -0.72,0.881 -0.951,1.434 -0.23,0.553 -0.345,1.153 -0.345,1.798 v 40.505 c 0,0.622 0.115,1.21 0.345,1.763 0.231,0.553 0.548,1.036 0.951,1.451 0.403,0.415 0.881,0.738 1.434,0.968 0.553,0.23 1.152,0.346 1.798,0.346 h 30.068 c 1.106,0 2.292,-0.196 3.56,-0.588 1.267,-0.392 2.448,-1.019 3.543,-1.883 1.093,-0.864 2.004,-1.988 2.73,-3.371 0.725,-1.381 1.088,-3.075 1.088,-5.08 V 24.331 C 4.976,22.741 4.711,21.03 4.182,19.199 3.651,17.367 2.799,15.633 1.625,13.997 2.638,13.375 3.588,12.626 4.475,11.751 5.362,10.875 6.139,9.861 6.808,8.709 7.476,7.558 8.005,6.255 8.398,4.804 8.789,3.353 8.985,1.75 8.985,0 Z" />
          </g>
          <g
             transform="translate(1032.9346,988.4697)"
             id="g4714">
            <path
               inkscape:connector-curvature="0"
               id="path4716"
               style="fill:#000000;fill-opacity:1;fill-rule:nonzero;stroke:none"
               d="m 0,0 c 0,-2.051 -0.254,-3.883 -0.761,-5.495 -0.507,-1.612 -1.191,-3.036 -2.055,-4.268 -0.865,-1.234 -1.862,-2.288 -2.991,-3.163 -1.129,-0.876 -2.309,-1.591 -3.542,-2.143 -1.232,-0.553 -2.476,-0.955 -3.732,-1.209 -1.256,-0.254 -2.437,-0.38 -3.543,-0.38 h -20.322 v 8.985 h 20.322 c 1.152,0.092 2.194,0.329 3.128,0.709 0.933,0.38 1.733,0.893 2.402,1.538 0.668,0.645 1.187,1.422 1.555,2.333 0.369,0.909 0.554,1.941 0.554,3.093 v 4.078 c -0.117,1.129 -0.358,2.165 -0.727,3.111 -0.368,0.945 -0.869,1.75 -1.503,2.419 -0.635,0.667 -1.399,1.192 -2.299,1.573 -0.898,0.38 -1.934,0.57 -3.11,0.57 h -20.252 c -1.199,0 -2.109,-0.311 -2.731,-0.933 -0.622,-0.623 -0.934,-1.521 -0.934,-2.696 v -36.946 h -8.985 V 8.122 c 0,2.304 0.42,4.263 1.261,5.875 0.842,1.612 1.889,2.915 3.146,3.906 1.255,0.99 2.62,1.71 4.095,2.159 1.475,0.451 2.834,0.675 4.078,0.675 h 20.322 c 2.027,0 3.848,-0.259 5.461,-0.779 1.612,-0.517 3.035,-1.209 4.268,-2.073 1.232,-0.863 2.282,-1.861 3.146,-2.989 0.863,-1.129 1.577,-2.311 2.142,-3.543 C -1.042,10.12 -0.634,8.877 -0.38,7.62 -0.127,6.365 0,5.184 0,4.078 Z" />
          </g>
          <g
             transform="translate(1097.2119,992.5479)"
             id="g4718">
            <path
               inkscape:connector-curvature="0"
               id="path4720"
               style="fill:#000000;fill-opacity:1;fill-rule:nonzero;stroke:none"
               d="m 0,0 c 0,-2.051 -0.253,-3.883 -0.76,-5.495 -0.508,-1.613 -1.193,-3.035 -2.056,-4.269 -0.865,-1.232 -1.862,-2.286 -2.991,-3.162 -1.129,-0.876 -2.309,-1.595 -3.542,-2.16 -1.233,-0.565 -2.476,-0.974 -3.732,-1.227 -1.256,-0.253 -2.437,-0.379 -3.543,-0.379 L 2.143,-32.902 H -11.75 l -18.732,16.21 h -6.464 v 8.985 h 20.322 c 1.129,0.092 2.16,0.328 3.094,0.708 0.933,0.381 1.739,0.893 2.419,1.538 0.679,0.645 1.204,1.423 1.572,2.333 0.369,0.91 0.553,1.953 0.553,3.128 v 5.668 c 0,0.507 -0.064,0.893 -0.19,1.158 -0.127,0.264 -0.288,0.461 -0.483,0.588 -0.196,0.126 -0.404,0.201 -0.622,0.224 -0.22,0.023 -0.421,0.035 -0.606,0.035 H -40.54 v -40.575 h -8.986 v 45.033 c 0,0.622 0.115,1.21 0.345,1.763 0.23,0.553 0.548,1.036 0.951,1.451 0.403,0.415 0.881,0.738 1.434,0.968 0.553,0.23 1.152,0.346 1.798,0.346 h 34.111 c 2.005,0 3.699,-0.364 5.08,-1.089 1.383,-0.726 2.506,-1.636 3.37,-2.73 C -1.572,11.745 -0.95,10.563 -0.57,9.297 -0.19,8.03 0,6.843 0,5.737 Z" />
          </g>
          <g
             transform="translate(1156.3389,989.1611)"
             id="g4722">
            <path
               inkscape:connector-curvature="0"
               id="path4724"
               style="fill:#000000;fill-opacity:1;fill-rule:nonzero;stroke:none"
               d="m 0,0 c 0,1.773 -0.282,3.381 -0.846,4.821 -0.565,1.44 -1.36,2.673 -2.384,3.699 -1.026,1.024 -2.26,1.819 -3.699,2.384 -1.44,0.564 -3.024,0.847 -4.752,0.847 h -12.166 c -1.752,0 -3.347,-0.283 -4.786,-0.847 -1.44,-0.565 -2.679,-1.36 -3.716,-2.384 C -33.386,7.494 -34.187,6.261 -34.751,4.821 -35.315,3.381 -35.598,1.773 -35.598,0 v -9.47 c 0,-1.774 0.283,-3.382 0.847,-4.822 0.564,-1.439 1.365,-2.673 2.402,-3.697 1.037,-1.026 2.276,-1.821 3.716,-2.385 1.439,-0.564 3.034,-0.847 4.786,-0.847 h 12.097 c 1.751,0 3.347,0.283 4.787,0.847 1.439,0.564 2.678,1.359 3.715,2.385 1.037,1.024 1.837,2.258 2.402,3.697 0.564,1.44 0.846,3.048 0.846,4.822 z m 8.987,-9.47 c 0,-3.018 -0.519,-5.795 -1.556,-8.329 -1.036,-2.535 -2.477,-4.724 -4.32,-6.567 -1.843,-1.843 -4.026,-3.278 -6.549,-4.303 -2.523,-1.024 -5.271,-1.537 -8.243,-1.537 h -12.166 c -2.972,0 -5.725,0.513 -8.26,1.537 -2.535,1.025 -4.723,2.46 -6.567,4.303 -1.844,1.843 -3.289,4.032 -4.337,6.567 -1.049,2.534 -1.572,5.311 -1.572,8.329 V 0 c 0,2.995 0.523,5.766 1.572,8.312 1.048,2.546 2.493,4.734 4.337,6.566 1.844,1.832 4.032,3.267 6.567,4.303 2.535,1.037 5.288,1.555 8.26,1.555 h 12.166 c 2.972,0 5.72,-0.518 8.243,-1.555 2.523,-1.036 4.706,-2.471 6.549,-4.303 1.843,-1.832 3.284,-4.02 4.32,-6.566 C 8.468,5.766 8.987,2.995 8.987,0 Z" />
          </g>
          <g
             transform="translate(1222.207,972.2607)"
             id="g4726">
            <path
               inkscape:connector-curvature="0"
               id="path4728"
               style="fill:#000000;fill-opacity:1;fill-rule:nonzero;stroke:none"
               d="m 0,0 c 0,-1.798 -0.312,-3.469 -0.934,-5.012 -0.623,-1.544 -1.492,-2.88 -2.609,-4.009 -1.118,-1.128 -2.448,-2.01 -3.991,-2.644 -1.545,-0.634 -3.228,-0.95 -5.047,-0.95 h -32.937 v 8.986 h 32.937 c 1.105,0 1.97,0.316 2.592,0.95 0.623,0.634 0.933,1.527 0.933,2.679 V 36.946 H 0 Z" />
          </g>
          <path
             inkscape:connector-curvature="0"
             id="path4730"
             style="fill:#000000;fill-opacity:1;fill-rule:nonzero;stroke:none"
             d="m 1280.331,979.898 h -28.374 v 9.055 h 28.374 z m 4.044,-20.252 h -32.418 c -1.244,0 -2.604,0.218 -4.078,0.657 -1.475,0.436 -2.84,1.157 -4.096,2.159 -1.256,1.003 -2.304,2.305 -3.145,3.905 -0.841,1.602 -1.261,3.567 -1.261,5.894 v 32.418 c 0,0.622 0.114,1.21 0.345,1.763 0.23,0.553 0.548,1.036 0.95,1.451 0.403,0.415 0.882,0.737 1.434,0.968 0.554,0.23 1.153,0.346 1.798,0.346 h 40.471 v -8.986 h -36.012 v -27.96 c 0,-1.176 0.31,-2.074 0.933,-2.697 0.622,-0.622 1.531,-0.932 2.729,-0.932 h 32.35 z" />
          <g
             transform="translate(1344.1934,959.6455)"
             id="g4732">
            <path
               inkscape:connector-curvature="0"
               id="path4734"
               style="fill:#000000;fill-opacity:1;fill-rule:nonzero;stroke:none"
               d="m 0,0 h -32.417 c -0.83,0 -1.723,0.099 -2.679,0.294 -0.957,0.195 -1.901,0.501 -2.834,0.916 -0.933,0.415 -1.826,0.95 -2.678,1.606 -0.853,0.658 -1.608,1.453 -2.265,2.385 -0.656,0.934 -1.181,2.017 -1.572,3.249 -0.392,1.233 -0.587,2.621 -0.587,4.165 v 24.331 c 0,0.829 0.096,1.723 0.293,2.679 0.196,0.955 0.502,1.901 0.916,2.833 0.415,0.934 0.956,1.827 1.625,2.68 0.668,0.852 1.469,1.607 2.401,2.263 0.934,0.657 2.011,1.18 3.233,1.573 1.22,0.391 2.603,0.587 4.147,0.587 H 0 v -8.986 h -32.417 c -1.176,0 -2.074,-0.311 -2.696,-0.933 -0.622,-0.622 -0.934,-1.544 -0.934,-2.765 V 12.615 c 0,-1.152 0.317,-2.045 0.951,-2.678 0.634,-0.634 1.526,-0.951 2.679,-0.951 H 0 Z" />
          </g>
          <g
             transform="translate(1404.5654,1000.2207)"
             id="g4736">
            <path
               inkscape:connector-curvature="0"
               id="path4738"
               style="fill:#000000;fill-opacity:1;fill-rule:nonzero;stroke:none"
               d="m 0,0 h -19.804 v -40.575 h -8.985 V 0 H -48.627 V 8.986 H 0 Z" />
          </g>
          <g
             transform="translate(1465.8701,974.2305)"
             id="g4740">
            <path
               inkscape:connector-curvature="0"
               id="path4742"
               style="fill:#000000;fill-opacity:1;fill-rule:nonzero;stroke:none"
               d="m 0,0 c 0,-1.774 -0.224,-3.37 -0.673,-4.787 -0.45,-1.417 -1.043,-2.666 -1.78,-3.749 -0.738,-1.084 -1.602,-2.005 -2.592,-2.766 -0.991,-0.76 -2.017,-1.383 -3.076,-1.866 -1.061,-0.483 -2.138,-0.841 -3.232,-1.071 -1.094,-0.231 -2.125,-0.346 -3.092,-0.346 h -34.666 v 8.986 h 34.666 c 1.727,0 3.069,0.506 4.025,1.52 0.956,1.015 1.435,2.374 1.435,4.079 0,0.83 -0.127,1.59 -0.38,2.281 -0.254,0.691 -0.617,1.29 -1.089,1.797 -0.472,0.507 -1.049,0.9 -1.728,1.175 -0.68,0.277 -1.434,0.415 -2.263,0.415 h -20.668 c -1.452,0 -3.02,0.26 -4.7,0.778 -1.683,0.518 -3.244,1.353 -4.684,2.505 -1.441,1.153 -2.639,2.662 -3.595,4.528 -0.956,1.867 -1.434,4.147 -1.434,6.843 0,2.696 0.478,4.971 1.434,6.826 0.956,1.854 2.154,3.364 3.595,4.527 1.44,1.163 3.001,2.005 4.684,2.523 1.68,0.519 3.248,0.778 4.7,0.778 H -4.526 V 25.99 h -30.587 c -1.706,0 -3.036,-0.518 -3.992,-1.555 -0.957,-1.037 -1.435,-2.409 -1.435,-4.113 0,-1.727 0.478,-3.093 1.435,-4.095 0.956,-1.003 2.286,-1.504 3.992,-1.504 h 20.668 0.068 c 0.968,-0.023 1.993,-0.156 3.076,-0.397 1.083,-0.242 2.16,-0.617 3.232,-1.124 1.072,-0.507 2.09,-1.146 3.058,-1.918 0.968,-0.772 1.826,-1.699 2.574,-2.782 C -1.687,7.419 -1.094,6.175 -0.656,4.77 -0.218,3.364 0,1.773 0,0" />
          </g>
          <path
             inkscape:connector-curvature="0"
             id="path4744"
             style="fill:#000000;fill-opacity:1;fill-rule:nonzero;stroke:none"
             d="M 1465.87,937.575 H 747.763 v -3.794 h 718.107 z" />
        </g>
      </g>
    </g>
  </g>
</svg>
